<?xml version="1.0" standalone="no"?>
<!DOCTYPE svg PUBLIC "-//W3C//DTD SVG 20010904//EN"
 "http://www.w3.org/TR/2001/REC-SVG-20010904/DTD/svg10.dtd">
<svg version="1.0" xmlns="http://www.w3.org/2000/svg"
 width="56.000000pt" height="56.000000pt" viewBox="0 0 128.000000 128.000000"
 preserveAspectRatio="xMidYMid meet">

<g transform="translate(0.000000,128.000000) scale(0.100000,-0.100000)"
fill="#fcb01b" stroke="none">
<path d="M563 1190 c-39 -24 -26 -3 -318 -508 -256 -446 -264 -463 -228 -532
10 -19 33 -45 52 -57 l34 -23 537 0 537 0 34 23 c19 12 42 38 52 57 36 69 28
86 -228 532 -131 227 -249 430 -262 451 -32 51 -77 77 -133 77 -27 0 -58 -8
-77 -20z m121 -72 c14 -13 136 -214 271 -448 263 -457 269 -470 219 -509 -26
-21 -36 -21 -534 -21 -498 0 -508 0 -534 21 -50 39 -44 52 219 509 135 234
257 435 271 448 14 12 34 22 44 22 10 0 30 -10 44 -22z"/>
<path d="M600 655 l0 -185 40 0 40 0 0 185 0 185 -40 0 -40 0 0 -185z"/>
<path d="M606 374 c-31 -30 -9 -84 34 -84 43 0 65 54 34 84 -8 9 -24 16 -34
16 -10 0 -26 -7 -34 -16z"/>
</g>
</svg>
